<svg xmlns="http://www.w3.org/2000/svg" viewBox="0 0 100 100">
  <defs>
    <linearGradient id="g" x1="0%" y1="0%" x2="100%" y2="100%">
      <stop offset="0%" style="stop-color:#6C63FF"/>
      <stop offset="100%" style="stop-color:#A855F7"/>
    </linearGradient>
  </defs>
  <rect width="100" height="100" rx="20" fill="url(#g)"/>
  <path d="M30 35 L30 65 Q30 70 35 70 L50 70 Q55 70 55 65 L55 55 Q55 50 60 50 L65 50 Q70 50 70 45 L70 35 Q70 30 65 30 L35 30 Q30 30 30 35Z" fill="white" opacity="0.9"/>
  <rect x="38" y="38" width="6" height="6" rx="1" fill="#6C63FF"/>
  <rect x="48" y="38" width="6" height="6" rx="1" fill="#6C63FF"/>
  <rect x="38" y="48" width="6" height="6" rx="1" fill="#6C63FF"/>
  <rect x="38" y="58" width="6" height="6" rx="1" fill="#6C63FF" opacity="0.5"/>
</svg>